<svg xmlns="http://www.w3.org/2000/svg" width="144" height="144" viewBox="0 0 144 144" fill="none">
  <rect width="144" height="144" fill="#1976D2"/>
  <path d="M72 36C51.013 36 34 53.013 34 74C34 94.987 51.013 112 72 112C92.987 112 110 94.987 110 74C110 53.013 92.987 36 72 36ZM72 48C86.359 48 98 59.641 98 74C98 88.359 86.359 100 72 100C57.641 100 46 88.359 46 74C46 59.641 57.641 48 72 48Z" fill="white"/>
  <path d="M72 60C64.268 60 58 66.268 58 74C58 81.732 64.268 88 72 88C79.732 88 86 81.732 86 74C86 66.268 79.732 60 72 60Z" fill="white"/>
</svg>